<svg id="Layer_1" data-name="Layer 1" xmlns="http://www.w3.org/2000/svg" viewBox="0 0 410.09 410.09"><defs><style>.cls-1{fill:#46ad42;}.cls-2{fill:#54a1c0;}</style></defs><title>Logo</title><path class="cls-1" d="M273.89,184.88a77.79,77.79,0,1,1-55,22.78,77.31,77.31,0,0,1,55-22.78m0-37.46A115.25,115.25,0,1,0,389.13,262.66,115.24,115.24,0,0,0,273.89,147.42Z"/><path class="cls-2" d="M40.32,264.66A17.36,17.36,0,0,1,28,235L223.8,39.27a17.36,17.36,0,0,1,24.55,24.55L52.6,259.58A17.32,17.32,0,0,1,40.32,264.66Z"/><path class="cls-2" d="M236.08,264.66a17.3,17.3,0,0,1-12.28-5.08L28,63.82A17.36,17.36,0,0,1,52.6,39.27L248.35,235a17.36,17.36,0,0,1-12.27,29.64Z"/></svg>